<?xml version="1.0" standalone="no"?>
<!DOCTYPE svg PUBLIC "-//W3C//DTD SVG 20010904//EN"
 "http://www.w3.org/TR/2001/REC-SVG-20010904/DTD/svg10.dtd">
<svg version="1.0" xmlns="http://www.w3.org/2000/svg"
 width="1887.000000pt" height="505.000000pt" viewBox="0 0 1887.000000 505.000000"
 preserveAspectRatio="xMidYMid meet">

<g transform="translate(0.000000,505.000000) scale(0.100000,-0.100000)"
fill="#509E2F" stroke="none">
<path d="M10530 2475 l0 -2135 195 0 195 0 0 2135 0 2135 -195 0 -195 0 0
-2135z"/>
<path fill="#FF9900" d="M860 4185 l0 -365 455 0 455 0 0 365 0 365 -455 0 
-455 0 0 -365z"/>
<path d="M11530 3481 l0 -461 115 0 114 0 3 138 3 137 87 3 c102 3 86 17 183
-162 l60 -111 128 -3 c70 -1 127 0 127 2 0 3 -35 67 -79 143 l-78 138 46 25
c35 19 52 37 71 75 22 45 25 64 28 191 5 198 -17 263 -108 314 l-45 25 -327 3
-328 3 0 -460z m527 268 c15 -5 31 -16 35 -22 4 -7 8 -58 8 -114 0 -136 4
-133 -192 -133 l-148 0 0 133 c0 74 3 137 7 140 11 11 259 8 290 -4z"/>
<path d="M12470 3480 l0 -460 365 0 365 0 0 90 0 90 -247 2 -248 3 0 95 0 95
193 3 192 2 0 90 0 90 -195 0 -196 0 3 88 3 87 248 3 247 2 0 90 0 90 -365 0
-365 0 0 -460z"/>
<path d="M13425 3931 c-68 -17 -107 -48 -141 -111 -16 -29 -19 -57 -19 -160 0
-149 18 -202 82 -244 54 -36 121 -46 309 -46 l164 0 0 -69 c0 -104 9 -101
-297 -101 l-253 0 0 -84 0 -84 68 -8 c114 -14 542 -11 584 4 92 33 129 95 136
227 6 123 -10 196 -55 246 -52 57 -102 69 -298 69 -197 0 -205 3 -205 88 0 31
4 62 8 69 17 26 69 33 268 33 l204 0 0 90 0 90 -262 -1 c-145 -1 -276 -4 -293
-8z"/>
<path d="M14180 3480 l0 -460 492 2 492 3 29 78 30 77 162 0 163 0 18 -47 c9
-27 23 -63 30 -80 l13 -33 127 0 c97 0 125 3 122 13 -3 6 -81 213 -173 460
l-168 447 -132 0 -131 0 -170 -449 -169 -450 -3 79 -3 80 -247 2 -247 3 0 95
0 95 193 3 192 2 0 90 0 90 -195 0 -196 0 3 88 3 87 248 3 247 2 0 90 0 90
-365 0 -365 0 0 -460z m1260 16 l49 -146 -104 0 -103 0 50 151 c27 82 52 148
54 146 3 -2 27 -70 54 -151z"/>
<path d="M15930 3481 l0 -461 115 0 114 0 3 138 3 137 87 3 c102 3 86 17 183
-162 l60 -111 128 -3 c70 -1 127 0 127 2 0 3 -35 67 -79 143 l-78 138 46 25
c35 19 52 37 71 75 22 45 25 64 28 191 5 198 -17 263 -108 314 l-45 25 -327 3
-328 3 0 -460z m527 268 c15 -5 31 -16 35 -22 4 -7 8 -58 8 -114 0 -136 4
-133 -192 -133 l-148 0 0 133 c0 74 3 137 7 140 11 11 259 8 290 -4z"/>
<path d="M16982 3921 c-64 -22 -85 -40 -114 -100 -22 -44 -23 -59 -26 -318 -5
-368 7 -416 116 -470 l54 -26 231 7 c128 4 255 10 282 14 l50 7 3 83 3 82
-228 0 c-191 0 -232 3 -251 16 -22 15 -22 18 -22 258 0 234 1 244 21 262 19
17 41 19 250 22 l229 3 0 90 0 89 -272 0 c-237 -1 -280 -3 -326 -19z"/>
<path d="M17680 3480 l0 -460 115 0 115 0 2 188 3 187 163 3 162 2 0 -190 0
-190 120 0 120 0 0 460 0 460 -120 0 -120 0 0 -180 0 -180 -165 0 -165 0 0
180 0 180 -115 0 -115 0 0 -460z"/>
<path d="M3585 3649 c-252 -12 -597 -37 -883 -65 -140 -13 -260 -24 -268 -24
-12 0 -14 -52 -14 -327 l0 -326 193 6 c105 4 298 15 427 26 285 25 577 41 724
41 132 0 181 -18 224 -83 25 -38 27 -49 30 -174 l4 -133 -580 0 c-626 0 -682
-4 -816 -54 -222 -84 -392 -286 -448 -531 -18 -84 -18 -556 0 -640 55 -243
217 -440 434 -525 114 -44 224 -60 423 -60 349 0 662 88 970 274 42 25 61 32
66 23 3 -6 16 -65 29 -129 l23 -118 404 0 404 0 -3 1113 -3 1112 -23 73 c-84
273 -282 456 -553 512 -80 17 -132 20 -344 18 -137 0 -326 -5 -420 -9z m435
-1873 l0 -154 -32 -11 c-188 -60 -411 -94 -618 -95 -186 -1 -207 5 -257 71
-26 34 -28 42 -28 138 0 95 2 104 27 137 52 68 47 68 501 68 l407 0 0 -154z"/>
<path d="M7030 3645 c-244 -40 -494 -132 -696 -256 -36 -22 -67 -39 -69 -37
-2 2 -13 53 -25 113 -12 61 -24 118 -26 128 -5 16 -33 17 -410 17 l-404 0 0
-1390 0 -1390 460 0 460 0 0 984 0 984 128 31 c178 44 279 61 413 68 108 5
120 4 163 -17 30 -14 57 -38 74 -63 l27 -41 3 -973 2 -973 455 0 455 0 0 980
0 980 23 9 c91 35 362 87 501 97 127 9 178 0 223 -39 66 -58 63 0 63 -1062 l0
-965 460 0 461 0 -3 1102 -3 1103 -23 80 c-66 228 -222 404 -433 488 -225 90
-604 71 -964 -47 -131 -44 -276 -110 -373 -172 -29 -19 -56 -34 -60 -34 -4 0
-20 19 -37 42 -41 56 -161 150 -240 188 -110 53 -202 72 -370 76 -99 2 -179
-1 -235 -11z"/>
<path d="M467 3503 c-4 -3 -7 -163 -7 -355 l0 -348 200 0 200 0 0 -985 0 -985
455 0 455 0 0 1340 0 1340 -648 0 c-357 0 -652 -3 -655 -7z"/>
<path d="M11530 1670 l0 -460 482 2 482 3 29 78 30 77 162 0 163 0 18 -47 c9
-27 23 -63 30 -80 l13 -33 127 0 c97 0 125 3 122 13 -3 6 -81 213 -173 460
l-168 447 -132 0 -131 0 -154 -407 c-84 -225 -161 -426 -171 -448 l-18 -40 0
77 -1 78 -237 2 -238 3 -3 368 -2 367 -115 0 -115 0 0 -460z m1240 16 l49
-146 -104 0 -103 0 50 151 c27 82 52 148 54 146 3 -2 27 -70 54 -151z"/>
<path d="M13260 1670 l0 -461 328 3 c320 3 328 4 375 26 34 17 55 37 75 70 24
42 27 56 27 142 0 79 -4 102 -22 136 -23 44 -70 88 -103 99 -18 6 -16 9 17 38
49 43 73 98 73 173 0 103 -32 169 -103 207 -40 21 -54 22 -354 25 l-313 3 0
-461z m488 269 c25 -8 34 -19 42 -49 5 -20 7 -52 4 -69 -11 -53 -33 -61 -176
-61 l-128 0 0 88 c0 49 3 92 7 95 11 11 218 8 251 -4z m39 -370 c37 -14 43
-25 43 -86 0 -86 -22 -96 -215 -91 l-120 3 -3 79 c-2 44 -1 85 2 93 7 16 250
19 293 2z"/>
</g>
</svg>
