<?xml version="1.0" standalone="no"?>
<!DOCTYPE svg PUBLIC "-//W3C//DTD SVG 20010904//EN"
 "http://www.w3.org/TR/2001/REC-SVG-20010904/DTD/svg10.dtd">
<svg version="1.0" xmlns="http://www.w3.org/2000/svg"
 width="570pt" height="510pt" viewBox="10 30 580 540"
 preserveAspectRatio="xMidYMid meet">
<metadata>
Created by potrace 1.13, written by Peter Selinger 2001-2015
</metadata>
<g transform="translate(0.000000,600) scale(0.100000,-0.100000)"
fill="#032535" stroke="none">
<path d="M2642 5543 c-9 -21 -21 -41 -25 -44 -5 -3 -8 -9 -7 -13 3 -9 -18 -63
-36 -98 -9 -16 -12 -28 -8 -28 5 0 3 -5 -4 -12 -7 -7 -34 -11 -64 -10 -39 2
-49 0 -38 -7 8 -6 10 -11 4 -11 -12 0 -124 163 -124 181 0 29 -30 40 -85 34
-56 -7 -61 -12 -57 -57 1 -10 -3 -18 -9 -18 -6 0 -9 -9 -6 -20 3 -11 1 -20 -5
-20 -6 0 -8 -11 -6 -25 3 -13 2 -22 -3 -20 -4 3 -7 -14 -7 -38 1 -57 -4 -64
-60 -81 l-47 -14 -92 95 -92 95 -45 -15 c-24 -8 -46 -14 -48 -12 -2 2 -5 -55
-7 -127 -2 -90 -7 -135 -16 -144 -7 -7 -15 -10 -19 -7 -3 4 -6 1 -6 -6 0 -7
-4 -9 -10 -6 -5 3 -10 2 -10 -2 0 -14 -57 -14 -72 0 -7 7 -21 16 -30 20 -10 3
-18 11 -18 17 0 5 -6 10 -12 10 -7 1 -38 21 -68 45 -36 30 -58 41 -65 35 -7
-6 -15 -7 -18 -3 -4 3 -7 0 -7 -7 0 -7 -3 -11 -6 -8 -3 4 -13 -1 -22 -10 -17
-17 -20 -63 -8 -112 3 -14 8 -45 10 -70 2 -25 7 -56 11 -70 5 -22 0 -30 -35
-53 -23 -15 -45 -27 -50 -27 -19 0 -130 57 -123 64 4 4 -1 4 -11 0 -15 -6 -17
-4 -11 6 5 9 4 11 -3 6 -6 -4 -29 2 -51 14 -26 13 -42 16 -46 9 -4 -5 -17 -14
-30 -19 -24 -9 -54 -50 -37 -50 12 0 37 -89 33 -119 -2 -14 1 -21 8 -17 7 4 8
1 5 -8 -3 -9 -1 -16 5 -16 6 0 8 -7 5 -15 -4 -8 -2 -15 3 -15 5 0 10 -6 10
-12 0 -7 2 -18 4 -23 2 -6 -15 -27 -37 -48 l-42 -37 -68 21 c-38 12 -71 24
-74 28 -3 3 -9 6 -15 6 -5 0 -27 4 -48 8 -36 8 -41 6 -73 -28 -24 -26 -32 -41
-25 -49 19 -23 101 -186 94 -186 -4 0 0 -5 10 -11 23 -13 22 -22 -10 -68 -25
-36 -33 -40 -69 -41 -22 0 -43 3 -46 6 -4 3 -35 7 -70 10 -34 2 -77 6 -95 8
-21 3 -33 0 -37 -10 -4 -10 -1 -13 7 -9 6 4 4 0 -5 -8 -10 -8 -15 -17 -11 -20
3 -4 1 -7 -6 -7 -7 0 -10 -4 -7 -9 4 -5 1 -11 -6 -13 -7 -3 -2 -13 13 -27 13
-12 24 -25 24 -29 0 -8 3 -12 60 -77 19 -22 35 -44 35 -49 0 -5 7 -14 16 -20
14 -11 13 -17 -8 -61 l-23 -50 -55 -3 c-167 -8 -218 -15 -213 -28 3 -8 0 -14
-7 -14 -6 0 -9 -4 -5 -9 3 -5 1 -12 -4 -15 -19 -12 -3 -61 25 -81 16 -11 48
-40 72 -65 23 -25 46 -45 51 -45 27 0 36 -41 21 -94 -9 -36 -13 -39 -67 -51
-32 -7 -65 -14 -73 -15 -9 0 -21 -5 -28 -9 -7 -4 -16 -5 -19 -2 -3 3 -12 1
-19 -5 -8 -6 -20 -9 -28 -6 -20 8 -42 -22 -49 -65 -5 -35 -3 -39 43 -73 26
-19 53 -35 59 -35 7 0 9 -4 6 -10 -3 -5 2 -10 12 -10 27 -1 98 -54 97 -73 0
-9 -1 -33 -2 -52 -2 -29 -8 -37 -40 -53 -20 -10 -45 -17 -56 -14 -11 2 -16 0
-12 -7 4 -6 2 -11 -3 -11 -22 0 -27 -2 -57 -21 -17 -10 -42 -20 -55 -22 -22
-4 -24 -8 -24 -62 0 -47 3 -59 17 -61 33 -4 108 -37 108 -46 0 -5 4 -6 10 -3
5 3 10 1 10 -5 0 -6 4 -9 9 -6 4 3 26 -2 49 -10 31 -13 41 -23 46 -46 9 -45 7
-90 -3 -84 -5 3 -12 -1 -15 -10 -3 -8 -10 -13 -15 -10 -5 4 -11 3 -13 -2 -1
-4 -40 -34 -86 -66 -80 -56 -83 -59 -77 -90 13 -61 14 -64 60 -70 25 -4 47
-11 50 -17 4 -5 10 -7 15 -4 5 3 40 -3 79 -12 72 -17 76 -21 84 -74 2 -8 6
-19 10 -26 4 -6 1 -17 -7 -25 -147 -139 -200 -198 -177 -198 5 0 7 -10 3 -22
-3 -14 -1 -19 6 -14 8 5 10 2 6 -8 -3 -9 -1 -16 6 -16 6 0 9 -3 7 -8 -3 -4 56
-9 132 -11 128 -3 159 -10 145 -33 -3 -4 0 -8 6 -8 7 0 9 -7 6 -16 -3 -8 -2
-13 3 -10 5 3 12 -2 15 -11 5 -11 -13 -42 -54 -94 -33 -43 -63 -85 -66 -94 -3
-8 -10 -12 -15 -9 -5 3 -9 -1 -10 -8 0 -7 -2 -23 -5 -36 -2 -14 2 -25 11 -28
8 -4 15 -12 15 -19 0 -32 25 -35 155 -15 l129 20 23 -27 c12 -16 23 -34 24
-40 1 -7 2 -19 3 -25 2 -16 -83 -180 -98 -190 -7 -5 -7 -8 -1 -8 6 0 4 -4 -4
-9 -11 -7 -6 -18 24 -55 34 -41 60 -53 75 -35 3 3 49 21 103 38 l98 33 35 -27
c20 -15 38 -33 41 -41 3 -7 -7 -48 -21 -90 -14 -42 -23 -81 -20 -85 3 -5 0 -9
-6 -9 -7 0 -9 -7 -6 -16 3 -8 2 -12 -4 -9 -6 3 -10 -1 -10 -9 0 -29 22 -63 51
-80 29 -17 32 -17 74 1 25 10 45 22 45 26 0 5 5 5 10 2 6 -3 10 -1 10 5 0 6 5
8 10 5 6 -3 10 -1 10 5 0 6 5 8 10 5 6 -3 10 -1 10 5 0 6 5 8 12 4 6 -4 17 1
25 11 7 11 13 15 13 9 0 -5 4 -3 9 4 5 9 17 11 34 7 15 -4 24 -11 21 -16 -3
-5 4 -9 15 -9 24 0 49 -69 29 -81 -7 -4 -9 -23 -5 -50 4 -29 3 -37 -3 -24 -5
13 -8 -6 -7 -58 l1 -77 42 -24 41 -23 39 33 c22 18 43 33 47 34 5 0 16 8 25
18 10 10 15 13 12 7 -3 -6 6 1 20 15 14 14 21 19 15 11 -6 -10 0 -8 17 4 14
11 26 22 26 25 -1 18 4 19 18 5 9 -9 23 -14 30 -11 8 3 14 1 14 -5 0 -6 4 -7
10 -4 5 3 10 1 10 -5 0 -6 4 -9 9 -6 5 4 7 -13 5 -36 -3 -37 -2 -39 5 -13 5
19 6 -8 3 -69 -4 -80 -3 -98 8 -91 10 6 11 0 7 -26 -7 -34 -6 -34 44 -50 l51
-16 52 51 c29 28 41 42 26 31 -14 -11 -5 0 20 25 25 25 52 56 60 68 15 22 15
22 72 6 32 -9 55 -20 52 -25 -8 -13 54 -232 68 -241 7 -4 23 -8 35 -8 12 0 27
-2 35 -5 7 -3 22 2 33 11 11 8 13 13 5 9 -10 -4 -9 -2 2 8 10 8 16 16 14 18
-6 6 109 174 117 172 4 -2 26 -3 50 -3 l42 0 35 -81 c19 -45 34 -86 33 -90 -2
-5 2 -9 8 -9 5 0 7 -4 4 -10 -3 -5 -2 -10 3 -10 6 0 13 -11 16 -26 6 -23 10
-25 58 -22 l52 3 21 53 c12 29 24 50 26 47 3 -3 6 1 7 8 2 22 8 42 20 63 6 12
8 24 5 28 -3 3 0 6 7 6 7 0 11 3 7 6 -12 13 23 34 66 40 l44 6 49 -77 c27 -43
48 -82 46 -87 -1 -5 2 -7 7 -4 5 4 15 -8 23 -25 13 -29 15 -30 58 -23 25 4 51
7 58 7 7 0 11 6 8 14 -3 7 0 13 5 13 7 0 9 11 7 25 -3 15 -1 22 5 18 6 -4 7 4
3 21 -5 20 -4 26 5 20 9 -5 10 1 6 23 -3 17 -3 34 1 38 7 7 8 12 10 56 2 22
10 28 58 43 l57 18 90 -97 c65 -70 94 -94 106 -89 9 3 23 7 31 8 36 3 43 26
49 158 6 130 6 131 30 133 14 1 27 7 29 14 2 6 8 9 13 5 5 -3 9 0 9 5 0 16 26
13 44 -4 8 -8 20 -15 26 -15 6 0 13 -7 16 -15 4 -8 10 -15 16 -15 5 0 39 -23
75 -50 49 -37 69 -47 75 -38 4 7 8 10 8 6 0 -4 13 5 28 20 32 30 32 34 8 186
-13 75 -13 91 -1 102 7 8 18 14 24 14 6 0 11 4 11 8 0 5 11 14 23 19 20 9 32
6 72 -19 26 -16 55 -31 64 -33 9 -2 40 -15 70 -28 l54 -26 19 25 c11 13 24 22
28 19 5 -3 14 4 20 15 6 11 7 20 2 20 -11 0 -48 130 -44 154 2 11 -1 16 -7 12
-7 -4 -8 -1 -5 8 3 9 2 16 -3 16 -16 0 -9 47 11 69 11 12 15 21 11 21 -16 0
15 24 34 27 11 1 71 -13 133 -33 l113 -35 38 41 38 40 -19 27 c-10 16 -34 56
-53 91 l-34 62 -361 0 c-312 0 -363 -2 -374 -15 -7 -9 -15 -13 -18 -10 -3 3
-11 -3 -18 -14 -17 -24 -188 -141 -207 -141 -8 0 -20 -6 -27 -14 -16 -21 -190
-107 -201 -100 -5 3 -9 1 -9 -4 0 -13 -119 -56 -148 -54 -13 1 -21 -2 -18 -7
4 -5 -3 -7 -14 -4 -12 3 -20 0 -20 -6 0 -7 -4 -10 -9 -7 -5 4 -20 2 -34 -3
-13 -5 -37 -12 -53 -15 -16 -3 -58 -12 -94 -20 -202 -47 -482 -42 -705 10 -60
15 -118 27 -127 27 -10 1 -18 5 -18 10 0 5 -9 7 -20 4 -11 -3 -18 -1 -14 4 3
5 -5 8 -18 7 -29 -2 -148 41 -148 54 0 5 -4 6 -10 3 -5 -3 -10 -1 -10 5 0 6
-4 8 -10 5 -11 -7 -164 71 -181 91 -6 8 -17 14 -24 14 -21 0 -166 99 -204 139
-19 20 -31 29 -27 21 4 -8 -12 6 -36 31 -23 25 -36 36 -28 25 8 -12 -5 -3 -28
19 -44 41 -58 62 -20 29 l23 -19 -19 22 c-10 13 -22 21 -26 18 -9 -6 -82 70
-74 77 3 4 -4 11 -15 18 -12 6 -18 16 -15 22 4 6 3 8 -3 5 -13 -8 -90 90 -85
106 2 7 1 9 -3 5 -4 -4 -28 25 -54 65 -73 112 -102 163 -94 170 3 4 1 7 -6 7
-7 0 -9 5 -6 10 3 6 1 10 -5 10 -6 0 -8 5 -5 10 3 6 2 10 -4 10 -6 0 -7 7 -4
17 4 11 3 14 -5 9 -8 -5 -10 -2 -6 8 3 9 1 16 -6 16 -6 0 -8 5 -5 10 3 6 1 10
-5 10 -6 0 -9 4 -6 8 3 5 -6 30 -19 58 -34 72 -78 211 -70 223 3 6 2 11 -3 11
-8 0 -31 104 -39 175 -24 218 -23 343 1 520 2 17 7 50 10 74 12 91 76 299 111
362 8 14 12 29 8 33 -3 3 -1 6 6 6 8 0 11 6 7 16 -3 8 -2 13 3 10 11 -7 23 22
15 35 -3 5 0 9 6 9 6 0 8 5 5 10 -3 6 -1 10 5 10 6 0 8 5 5 10 -3 6 -2 10 3
10 5 0 9 7 9 15 0 17 90 168 120 201 12 13 24 32 28 43 3 10 30 44 60 75 29
31 48 53 42 49 -7 -3 -4 3 7 15 10 12 23 20 29 19 6 -1 11 3 12 8 0 6 33 44
74 85 40 41 70 68 65 60 -4 -8 13 5 38 30 48 48 189 150 207 150 6 0 11 5 11
11 0 6 7 8 16 5 8 -3 12 -2 9 4 -3 6 3 10 14 10 11 0 24 6 28 13 9 15 143 80
143 69 0 -4 4 -2 8 4 8 13 119 62 154 68 13 3 24 5 26 7 1 1 6 2 11 3 5 0 13
4 17 8 4 4 18 5 32 1 16 -4 23 -2 18 5 -4 6 2 8 14 5 12 -3 20 0 20 6 0 7 4
10 9 7 5 -4 36 1 68 9 208 54 499 57 733 8 41 -9 83 -16 93 -17 9 0 17 -4 17
-9 0 -5 9 -7 20 -4 12 3 18 1 14 -5 -5 -7 2 -9 18 -5 14 4 28 3 32 -1 4 -4 12
-8 17 -8 5 -1 10 -2 12 -4 1 -1 10 -3 19 -5 35 -6 138 -50 138 -58 0 -5 5 -5
10 -2 6 3 10 1 10 -6 0 -7 3 -10 6 -7 7 7 133 -50 152 -69 7 -7 20 -13 28 -13
9 0 12 -5 8 -12 -4 -7 -3 -8 4 -4 12 7 174 -98 207 -134 17 -19 31 -20 384
-20 l366 0 45 85 c24 47 48 85 52 85 16 0 2 25 -32 63 l-35 37 -120 -40 c-65
-22 -122 -40 -125 -40 -4 0 -21 18 -39 40 -33 41 -33 41 -18 85 9 24 12 46 9
50 -4 3 0 10 7 15 8 4 14 22 14 39 0 16 5 28 10 24 5 -3 6 3 3 15 -4 11 -2 23
3 26 6 4 7 14 4 24 -8 19 -65 74 -73 69 -3 -1 -36 -18 -75 -36 -79 -38 -121
-60 -149 -75 -14 -8 -20 -8 -23 2 -3 6 -11 12 -19 12 -8 0 -14 5 -14 10 0 6
-6 10 -13 10 -8 0 -14 6 -14 13 0 6 -4 26 -8 42 -5 23 -4 26 4 15 8 -11 11 0
10 45 -1 33 1 83 4 112 4 37 1 56 -10 70 -8 10 -12 12 -8 5 3 -6 -9 -3 -29 8
l-34 21 -35 -31 c-19 -16 -39 -30 -45 -30 -5 0 -12 -7 -16 -15 -3 -8 -9 -14
-14 -13 -5 2 -19 -8 -31 -22 -13 -14 -20 -18 -16 -10 4 8 -4 3 -17 -11 -17
-20 -28 -25 -43 -19 -11 4 -23 6 -27 3 -5 -2 -8 1 -8 7 0 6 -13 16 -30 21
l-29 11 4 111 c3 79 2 105 -5 87 -8 -22 -9 -19 -6 15 3 40 3 40 -44 56 l-47
16 -54 -49 c-30 -27 -47 -46 -39 -42 8 4 -10 -18 -40 -49 -30 -30 -57 -54 -60
-52 -3 2 -24 8 -47 14 -36 10 -43 16 -43 36 0 14 -4 25 -10 25 -5 0 -7 6 -4
14 3 8 0 17 -5 21 -6 3 -9 10 -6 15 2 4 -2 29 -10 55 -8 27 -13 51 -12 54 4
16 -26 51 -44 51 -11 0 -28 4 -38 10 -15 7 -24 3 -45 -20 -14 -17 -26 -32 -26
-35 0 -2 -22 -39 -49 -81 l-48 -76 -52 -3 -53 -4 -35 77 c-20 42 -36 83 -36
90 0 6 -5 12 -10 12 -5 0 -7 7 -3 15 3 8 0 15 -6 15 -6 0 -9 3 -5 6 14 14 -25
34 -67 34 -44 0 -47 -2 -64 -37z" fill="#036289"/>
<path d="M1477 4204 c-4 -4 -7 -551 -7 -1215 0 -1115 1 -1207 17 -1213 9 -4
121 -6 250 -6 l233 1 -2 1217 -3 1217 -241 3 c-132 1 -243 -1 -247 -4z"/>
<path d="M2725 4198 c-2 -7 -6 -44 -9 -83 -7 -76 -10 -109 -27 -225 -6 -41
-12 -93 -15 -115 -2 -22 -7 -56 -11 -75 -3 -19 -6 -38 -5 -42 1 -3 -24 -179
-55 -390 -30 -211 -57 -408 -59 -438 -3 -58 -11 -138 -19 -180 -4 -23 -7 -47
-21 -170 -3 -25 -14 -108 -25 -185 -11 -77 -22 -162 -25 -190 -3 -27 -14 -110
-25 -183 -11 -73 -17 -137 -14 -142 10 -16 420 -13 432 3 6 6 16 68 22 137 7
69 15 144 18 168 l6 42 148 0 148 0 6 -42 c17 -130 34 -302 29 -309 -3 -5 103
-9 235 -9 132 0 242 3 244 8 3 4 1 34 -4 67 -4 33 -11 87 -14 120 -4 32 -8 62
-10 65 -2 4 -7 47 -10 96 -7 106 -6 100 -55 434 -40 278 -85 607 -95 699 -3
30 -7 57 -9 60 -2 3 -7 38 -10 77 -4 39 -9 82 -12 95 -2 13 -9 74 -14 134 -8
90 -52 420 -75 553 l-6 32 -330 0 c-255 0 -331 -3 -334 -12z m335 -788 c7 -74
14 -155 16 -180 3 -25 7 -61 9 -80 3 -19 8 -82 11 -140 3 -58 14 -182 25 -276
10 -94 19 -174 19 -178 0 -4 -46 -5 -102 -4 l-103 3 1 35 c1 44 7 109 50 515
19 182 38 361 41 399 3 37 9 62 13 55 4 -8 13 -75 20 -149z"/>
<path d="M4115 4198 c-3 -7 -4 -555 -3 -1218 l3 -1205 193 -3 192 -2 1 787 c0
434 2 784 4 778 4 -10 40 -314 50 -420 3 -33 8 -67 10 -75 2 -8 7 -48 10 -89
3 -41 8 -77 9 -80 5 -9 19 -172 18 -211 -1 -19 18 -181 41 -360 l43 -325 231
-2 232 -2 5 32 c3 18 8 81 11 141 3 60 7 112 9 115 2 3 7 38 11 76 3 39 15
142 26 230 11 88 21 167 21 175 1 20 74 610 85 680 5 33 10 -242 13 -695 l5
-750 232 -3 233 -2 2 1220 3 1220 -350 0 -350 0 -38 -352 c-21 -194 -50 -445
-63 -558 -14 -113 -27 -255 -30 -317 -3 -61 -7 -120 -9 -130 -2 -10 -4 -34 -5
-53 -3 -48 -89 758 -125 1165 -3 33 -9 98 -14 145 -5 47 -7 88 -4 93 2 4 -154
7 -347 7 -271 0 -352 -3 -355 -12z"/>
</g>
</svg>
