<?xml version="1.0" standalone="no"?>
<!DOCTYPE svg PUBLIC "-//W3C//DTD SVG 20010904//EN"
 "http://www.w3.org/TR/2001/REC-SVG-20010904/DTD/svg10.dtd">
<svg version="1.0" xmlns="http://www.w3.org/2000/svg"
 width="1044.000000pt" height="505.000000pt" viewBox="0 0 1044.000000 505.000000"
 preserveAspectRatio="xMidYMid meet">

<g transform="translate(0.000000,505.000000) scale(0.100000,-0.100000)"
fill="#ffffff" stroke="none">
<path fill="#FF9900" d="M860 4185 l0 -365 455 0 455 0 0 365 0 365 -455 0
-455 0 0 -365z"/>
<path d="M3585 3649 c-252 -12 -597 -37 -883 -65 -140 -13 -260 -24 -268 -24
-12 0 -14 -52 -14 -327 l0 -326 193 6 c105 4 298 15 427 26 285 25 577 41 724
41 132 0 181 -18 224 -83 25 -38 27 -49 30 -174 l4 -133 -580 0 c-626 0 -682
-4 -816 -54 -222 -84 -392 -286 -448 -531 -18 -84 -18 -556 0 -640 55 -243
217 -440 434 -525 114 -44 224 -60 423 -60 349 0 662 88 970 274 42 25 61 32
66 23 3 -6 16 -65 29 -129 l23 -118 404 0 404 0 -3 1113 -3 1112 -23 73 c-84
273 -282 456 -553 512 -80 17 -132 20 -344 18 -137 0 -326 -5 -420 -9z m435
-1873 l0 -154 -32 -11 c-188 -60 -411 -94 -618 -95 -186 -1 -207 5 -257 71
-26 34 -28 42 -28 138 0 95 2 104 27 137 52 68 47 68 501 68 l407 0 0 -154z"/>
<path d="M7030 3645 c-244 -40 -494 -132 -696 -256 -36 -22 -67 -39 -69 -37
-2 2 -13 53 -25 113 -12 61 -24 118 -26 128 -5 16 -33 17 -410 17 l-404 0 0
-1390 0 -1390 460 0 460 0 0 984 0 984 128 31 c178 44 279 61 413 68 108 5
120 4 163 -17 30 -14 57 -38 74 -63 l27 -41 3 -973 2 -973 455 0 455 0 0 980
0 980 23 9 c91 35 362 87 501 97 127 9 178 0 223 -39 66 -58 63 0 63 -1062 l0
-965 460 0 461 0 -3 1102 -3 1103 -23 80 c-66 228 -222 404 -433 488 -225 90
-604 71 -964 -47 -131 -44 -276 -110 -373 -172 -29 -19 -56 -34 -60 -34 -4 0
-20 19 -37 42 -41 56 -161 150 -240 188 -110 53 -202 72 -370 76 -99 2 -179
-1 -235 -11z"/>
<path d="M467 3503 c-4 -3 -7 -163 -7 -355 l0 -348 200 0 200 0 0 -985 0 -985
455 0 455 0 0 1340 0 1340 -648 0 c-357 0 -652 -3 -655 -7z"/>
</g>
</svg>
