<!-- Created with Inkscape (http://www.inkscape.org/) -->
<svg id="logosvg" viewBox="0 0 140 134" style="background-color:#ffffff00" version="1.1" xmlns="http://www.w3.org/2000/svg" xmlns:xlink="http://www.w3.org/1999/xlink" xml:space="preserve" x="0px" y="0px">
									<g xmlns="http://www.w3.org/2000/svg" id="box">
										<path d="M0 0L140 0 140 134 0 134 0 0Z" fill="#000" fill-opacity="0"/>
										<path d="M50.98 91.73C50.98 87.35 52.6 83.71 55.46 81.23 54.94 80.51 54.37 79.84 53.75 79.24 51.3 76.77 46.72 74.71 42.26 72.8 37.78 70.89 33.79 69.51 30.33 66.68 28.85 65.47 28.33 64.01 28.33 61.98 28.33 56.94 32.64 54.19 39.36 54.19 44.42 54.19 49.37 56.38 51.41 58.97 53.08 61.1 53.62 62.92 55.2 62.92 56.28 62.92 56.69 62.04 56.69 60.89L55.58 49.9C51.49 48.67 45.04 48.14 40.23 48.14 25.79 48.14 15.99 55.55 15.99 66.59 15.99 74.62 20.44 80.65 30.97 84.45L36.45 86.67C44.55 89.96 46 91.89 46 96.65 46 103.1 40.38 105.7 32.85 105.7 26.13 105.7 20.44 101.99 18.53 97.49 17.81 95.55 17.02 95.1 16.05 95.33 15.16 95.53 14.59 96.21 14.72 97.14 14.8 97.75 16.63 108.81 16.63 108.81 22.98 110.85 27.7 111.64 33.6 111.64 43.31 111.64 51.15 108.06 55.39 102.28 52.58 99.6 50.98 95.98 50.98 91.73ZM123.34 49.21L73.8 49.21C73.8 49.21 71.84 60.85 71.84 61.3 71.84 62.1 72.47 62.64 73.38 62.64 74.37 62.64 74.34 62.05 75.63 60.31 78.19 56.88 80.97 55.46 88.19 55.46L91.26 55.42 90.97 76.38C95.55 77.53 99.04 80.27 100.52 84.4 101.08 85.97 101.13 87.39 101.05 88.23 100.93 89.67 100.51 90.47 100.03 90.97 99.47 91.57 98.75 91.84 97.77 91.47 96.99 91.18 93.34 88.73 90.95 88.12 90.95 93.65 90.95 101.05 90.95 101.6 90.95 103.1 90.88 107.58 86.53 107.97L85.46 108.08C85.46 108.08 83.83 108.16 83.83 109.86 83.83 111.62 85.46 111.67 85.46 111.67L111.69 111.67C111.69 111.67 113.32 111.62 113.32 109.86 113.32 108.16 111.69 108.08 111.69 108.08L110.61 107.97C105.99 107.82 106.19 102.51 106.19 102.51L105.74 55.42 108.96 55.46C116.18 55.46 118.95 56.88 121.51 60.31 122.81 62.05 122.77 62.64 123.77 62.64 124.67 62.64 125.3 62.1 125.3 61.3 125.3 60.85 123.34 49.21 123.34 49.21ZM40.44 38.63L40.44 37.67 40.44 36.24 40.44 31.44C40.44 30.93 40.41 29.53 40.39 28.68 40.34 26.1 40.34 26.1 39.15 26.1L38.61 26.1 38.61 25.25 44.88 25.25 44.88 26.1 44.01 26.1C43.35 26.1 43.35 26.65 43.35 26.75 43.35 26.75 43.35 26.84 43.35 27.57L43.35 27.98 43.35 30.35 43.35 35.18C43.35 35.76 43.38 37.11 43.4 37.93 43.45 40.52 43.45 40.52 44.64 40.52L45.51 40.52 45.51 41.36 38.93 41.36 38.93 40.52 39.78 40.52C40.34 40.52 40.44 40.32 40.44 40.11 40.44 40.06 40.44 40.11 40.44 39.26L40.44 38.63ZM56.2 27.03L56.2 27.28C56.18 27.57 56.08 27.69 55.86 27.69 55.65 27.69 55.55 27.59 55.48 27.28 55.33 26.43 54.09 25.8 52.56 25.8 50.64 25.8 49.21 26.97 49.21 28.51 49.21 29.84 49.91 30.57 51.97 31.31L53.26 31.8C56.28 32.91 57.52 34.31 57.52 36.61 57.52 39.65 54.82 41.85 51.13 41.85 49.71 41.85 48.26 41.61 46.9 41.13L46.56 39.36C46.46 38.78 46.46 38.83 46.46 38.66 46.46 38.42 46.58 38.3 46.82 38.3 47.07 38.3 47.14 38.39 47.29 38.8 47.68 39.94 49.38 40.81 51.27 40.81 53.51 40.81 55.11 39.48 55.11 37.62 55.11 36.17 54.21 35.25 51.97 34.43L50.69 33.97C48.11 33.03 46.9 31.63 46.9 29.57 46.9 26.77 49.45 24.77 53 24.77 54.19 24.77 55.28 24.93 56.11 25.25L56.2 27.03ZM68.3 27.03L68.3 27.28C68.28 27.57 68.18 27.69 67.96 27.69 67.75 27.69 67.65 27.59 67.58 27.28 67.43 26.43 66.19 25.8 64.66 25.8 62.74 25.8 61.31 26.97 61.31 28.51 61.31 29.84 62.01 30.57 64.07 31.31L65.36 31.8C68.38 32.91 69.62 34.31 69.62 36.61 69.62 39.65 66.92 41.85 63.23 41.85 61.82 41.85 60.36 41.61 59 41.13L58.66 39.36C58.56 38.78 58.56 38.83 58.56 38.66 58.56 38.42 58.68 38.3 58.92 38.3 59.17 38.3 59.24 38.39 59.39 38.8 59.78 39.94 61.48 40.81 63.37 40.81 65.61 40.81 67.21 39.48 67.21 37.62 67.21 36.17 66.31 35.25 64.07 34.43L62.79 33.97C60.21 33.03 59 31.63 59 29.57 59 26.77 61.55 24.77 65.1 24.77 66.29 24.77 67.38 24.93 68.21 25.25L68.3 27.03ZM87.69 33.03C87.69 38.15 84.02 41.85 78.99 41.85 73.97 41.85 70.76 38.66 70.76 33.68 70.76 28.48 74.43 24.77 79.53 24.77 84.53 24.77 87.69 27.95 87.69 33.03ZM73.7 32.4C73.7 37.43 76.2 40.93 79.77 40.93 82.83 40.93 84.73 38.39 84.73 34.28 84.73 29.21 82.28 25.68 78.75 25.68 75.57 25.68 73.7 28.17 73.7 32.4ZM123.74 40.52C122.55 40.52 122.55 40.52 122.5 37.93 122.48 37.11 122.45 35.76 122.45 35.18L122.45 27.57C122.45 26.84 122.45 26.75 122.45 26.75 122.45 26.65 122.5 26.5 122.47 26.45 122.47 26.45 122.55 26.1 123.11 26.1L123.98 26.1 123.98 25.25 117.38 25.25 117.38 26.1 118.25 26.1C119.44 26.1 119.44 26.1 119.49 28.68 119.51 29.53 119.54 30.93 119.54 31.44L119.54 39.26C119.54 40.11 119.54 40.06 119.54 40.11 119.54 40.29 119.44 40.52 118.88 40.52L118.24 40.52C117.51 40.52 117.02 40.08 115.76 38.39 114.98 37.36 115.05 37.45 113.65 35.33L112.45 33.54C114.67 33.2 116.05 31.72 116.05 29.69 116.05 28.32 115.44 27.11 114.35 26.31 113.33 25.54 112.19 25.25 110.27 25.25L99.38 25.25 99.38 26.1 100.25 26.1C101.44 26.1 101.44 26.1 101.49 28.68 101.51 29.48 101.54 30.9 101.54 31.44L101.54 33.95C101.54 36.87 101.37 37.79 100.62 38.85 99.84 39.99 98.33 40.67 96.61 40.67 94.88 40.67 93.52 39.94 92.89 38.73 92.4 37.77 92.28 36.8 92.28 34.16L92.28 27.57C92.28 26.84 92.28 26.75 92.28 26.75 92.28 26.65 92.23 26.1 92.94 26.1L93.79 26.1 93.79 25.25 87.38 25.25 87.38 26.1 88.08 26.1C89.27 26.1 89.27 26.1 89.32 28.68 89.34 29.48 89.37 30.83 89.37 31.44L89.37 35.13C89.37 38.08 89.68 39.19 90.8 40.23 91.89 41.24 93.72 41.85 95.71 41.85 97.87 41.85 99.81 41.15 101 39.91 102.19 38.68 102.58 37.31 102.58 34.38L102.58 27.57C102.58 26.84 102.58 26.75 102.58 26.75 102.58 26.65 102.53 26.1 103.24 26.1L104.17 26.1C105.36 26.1 105.36 26.1 105.41 28.68 105.43 29.48 105.46 30.9 105.46 31.44L105.46 39.58C105.46 40.23 105.5 40.52 104.8 40.52L103.95 40.52 103.95 41.36 110.44 41.36 110.44 40.52 109.61 40.52C108.47 40.52 108.47 40.52 108.42 37.93 108.4 37.14 108.37 35.78 108.37 35.18L108.37 34.07C108.74 34.09 108.98 34.12 109.22 34.12L109.93 34.12 110.58 35.18 110.92 35.83 111.26 36.48 111.63 37.16C111.95 37.74 112.45 38.59 113.16 39.63 113.67 40.37 114.11 40.93 114.35 41.15 114.54 41.32 114.71 41.36 115.32 41.36L124.36 41.36 124.36 40.52 123.74 40.52ZM109.27 33.2C109 33.2 109.05 33.2 108.37 33.18L108.37 26.67C108.35 26.6 108.44 26.24 109.1 26.24 110.12 26.24 110.58 26.31 111.14 26.6 112.38 27.23 113.16 28.56 113.16 30.03 113.16 32.01 111.73 33.2 109.27 33.2ZM37.48 40.47C36.14 40.47 36.16 40.43 36.05 37.83 36.02 37.11 35.99 35.11 35.99 34.06L35.99 25.07C35.99 24.21 35.99 24.1 35.99 24.1 35.99 23.99 35.91 23.33 36.74 23.33L37.71 23.33 37.71 22.33 33.02 22.33C32.76 22.84 32.62 23.16 32.27 23.96 31.79 25.16 31.81 25.07 31.04 26.81L29.2 31.12 28.97 31.64 28.75 32.15 28.51 32.69C28.51 32.69 28.2 33.46 27.8 34.37 27.42 35.29 27.37 35.4 27.14 35.94L20.71 22.33 15.23 22.33 15.23 23.33 15.69 23.33C17.35 23.33 17.7 24.05 17.7 27.44L17.7 28.1 17.67 28.76 17.67 35.34C17.64 37.6 17.64 37.29 17.64 38.14L17.64 40C17.64 40.31 17.53 40.47 16.87 40.47L15.83 40.47 15.83 41.36 21.4 41.36 21.4 40.47 20.42 40.47C19.1 40.47 19.07 40.34 18.96 38.68 18.87 37.69 18.82 35.69 18.82 34.06L18.82 30.38C18.85 26.87 18.85 27.16 18.9 26.24L25.48 40.53 26.35 40.53 32.82 25.7 32.82 39.88C32.82 40.1 32.7 40.47 32.04 40.47L31.04 40.47 31.04 41.36 38.15 41.36 38.15 40.47 37.48 40.47ZM97.91 86.88C96.76 82.7 92.13 79.08 85.74 79.08 80.78 79.08 76.99 81.42 75.01 84.22 74.94 84.13 74.86 84.04 74.79 83.95 73.55 82.4 70.04 78.05 69.12 76.9 69.1 76.87 69.07 76.83 69.05 76.8L69.04 76.8C68.97 76.71 68.92 76.64 68.9 76.61 66.58 73.53 68.36 70.29 71.14 69.91 72.68 69.7 74.11 70.33 74.89 70.83 75.55 71.25 76.39 71.62 77.03 70.83 77.76 69.92 76.78 68.75 75.93 68.1 75.38 67.68 73.33 66.16 69.85 66.16 64.13 66.16 60.04 69.6 60.04 75.12 60.04 76.83 60.52 78.41 61.3 79.99L61.31 80C61.57 80.57 61.84 81.06 62.1 81.41 56.99 82.74 54.32 86.68 54.32 91.73 54.32 99.15 60.31 104.06 70.15 104.06 74.17 104.06 77.56 103.04 80.2 101.78 80.61 102.01 81.91 103.69 84.38 103.69 87.73 103.69 87.51 100.56 87.51 99.82 87.51 98.93 87.51 84.63 87.51 84.63 87.55 84.35 87.72 84.01 88.26 84 91.63 84.46 94.67 85.73 97.04 87.55L97.04 87.55C97.04 87.55 97.35 87.86 97.7 87.64 97.9 87.52 98.01 87.31 97.91 86.88ZM72.87 99.99C66.85 99.99 62.64 95.41 62.64 88.86 62.64 86.92 63.25 85.32 63.85 84.26 69 91.16 72.06 94.5 77.41 99.01 76.63 99.34 74.76 99.99 72.87 99.99ZM83.34 84.89C83.33 84.91 83.33 84.93 83.33 84.93L83.34 84.93 83.34 93.13C81.18 91.22 78.76 88.57 76.46 85.95 76.46 85.94 76.47 85.94 76.48 85.93L76.48 85.93C78.33 84.98 80.43 84.32 82.69 84.01 82.96 84.06 83.34 84.23 83.34 84.83L83.34 84.89Z" fill="#ffffff"/>
									</g>
								</svg>

